<svg xmlns="http://www.w3.org/2000/svg" xmlns:xlink="http://www.w3.org/1999/xlink" width="1080" zoomAndPan="magnify" viewBox="0 0 810 809.999993" height="1080" preserveAspectRatio="xMidYMid meet" version="1.0"><defs><clipPath id="ff603c7a9f"><path d="M 405 0 C 181.324219 0 0 181.324219 0 405 C 0 628.675781 181.324219 810 405 810 C 628.675781 810 810 628.675781 810 405 C 810 181.324219 628.675781 0 405 0 Z M 405 0 " clip-rule="nonzero"/></clipPath><clipPath id="559f0793b4"><path d="M 66 55.113281 L 744 55.113281 L 744 752 L 66 752 Z M 66 55.113281 " clip-rule="nonzero"/></clipPath></defs><g clip-path="url(#ff603c7a9f)"><rect x="-81" width="972" fill="#ffffff" y="-80.999999" height="971.999992" fill-opacity="1"/></g><g clip-path="url(#559f0793b4)"><path fill="#000000" d="M 404.980469 55.113281 C 217.894531 55.113281 66.234375 206.773438 66.234375 393.863281 C 66.234375 485.269531 102.449219 568.207031 161.296875 629.144531 C 157.214844 697.828125 171.996094 741.257812 204.855469 750.621094 C 233.476562 754.84375 257.175781 747.589844 292.921875 713.613281 C 328 725.90625 365.703125 732.613281 404.976562 732.613281 C 592.0625 732.613281 743.722656 580.953125 743.722656 393.863281 C 743.722656 206.773438 592.066406 55.113281 404.980469 55.113281 Z M 377.980469 598.085938 C 296.859375 694.078125 240.789062 740.699219 209.773438 737.953125 C 179.816406 721.070312 168.875 684.195312 177.597656 622.664062 C 189.136719 617.328125 201.988281 615.394531 216.15625 616.863281 L 201.042969 631.976562 C 246.148438 614.519531 294.027344 590.371094 344.675781 559.550781 C 352.953125 548.679688 362.671875 526.097656 373.824219 491.8125 L 419.894531 457.9375 C 427.410156 454.050781 433.210938 464.828125 432.664062 471.351562 L 410.082031 492.128906 C 407.679688 497.59375 408.648438 499.722656 412.992188 498.511719 L 439.023438 476.121094 C 445.679688 478.464844 448.296875 483.078125 446.863281 489.949219 L 420.988281 513.488281 C 419.453125 517.285156 421.070312 518.195312 425.136719 517.894531 L 450.816406 499.605469 C 457.703125 503.105469 459.003906 505.835938 456.003906 511.929688 L 434.863281 530.476562 C 432.667969 534.277344 435.445312 535.492188 439.792969 535.144531 L 460.671875 520.484375 C 468.066406 521.78125 467.367188 527.851562 464.957031 534.105469 L 431.988281 564.144531 C 413.890625 587.507812 396.390625 595.464844 377.980469 598.085938 Z M 166.378906 604.964844 C 180.6875 555.214844 228.207031 465.433594 250.183594 434.96875 C 284.085938 403.410156 301.578125 500.035156 265.996094 594.25 C 258.761719 595.484375 233.042969 606.410156 233.042969 606.410156 C 213.203125 599.050781 183.167969 600.808594 166.378906 604.964844 Z M 224.566406 331.332031 C 206.46875 332.410156 200.722656 324.316406 207.324219 307.054688 L 300.167969 250.855469 L 293.746094 267.601562 L 224.566406 307.84375 C 216.191406 316.222656 216.191406 324.050781 224.566406 331.332031 Z M 268.4375 328.222656 L 275.503906 340.753906 L 246.167969 357.636719 L 239.65625 347.710938 Z M 267.011719 356.160156 L 284.515625 383.886719 C 288.605469 385.664062 292.359375 385.226562 295.789062 382.578125 C 292.355469 390.972656 287.132812 393.484375 280.121094 390.117188 L 260.257812 359.308594 Z M 282.539062 296.847656 L 302.917969 284.320312 C 301.066406 294.503906 302.898438 306.257812 308.414062 319.585938 L 404.527344 461.011719 C 401.601562 462.882812 398.820312 464.699219 396.144531 466.542969 L 299.808594 324.296875 Z M 451.40625 222.347656 C 448.351562 196.261719 426.761719 186.023438 386.644531 191.632812 C 429.273438 160.578125 466.441406 166.808594 498.140625 210.328125 Z M 505.488281 215.664062 L 554.230469 215.664062 C 527.371094 239.339844 492.652344 245.792969 450.074219 235.027344 Z M 424.246094 273.5625 L 441.242188 271.316406 C 439.460938 266.195312 445.269531 255.832031 447.613281 245.023438 C 454.300781 245.707031 463.457031 246.644531 475.085938 247.835938 L 474.273438 256.742188 L 485.820312 268.289062 C 495.125 284.34375 488.921875 288.496094 490.917969 301.53125 L 494.152344 318.867188 C 506.949219 331.601562 496.050781 339.03125 490.125 339.78125 C 462.117188 347.171875 436.980469 339.511719 427.285156 321.5625 C 424.546875 339.511719 437.574219 348.25 450.398438 361.160156 C 452.199219 386.652344 448.394531 408.96875 441.054688 416.957031 C 427.828125 419.660156 408.894531 420.945312 391.878906 418.246094 L 368.246094 384.316406 L 383.738281 321.5625 L 394.574219 315.164062 C 404.785156 318.792969 415.738281 316.707031 418.976562 310.425781 C 376.039062 313.457031 381.304688 222.917969 424.246094 273.5625 Z M 450.804688 431.339844 L 437.636719 459.902344 C 433.585938 449.574219 420.703125 448.582031 414.441406 453.765625 L 399.917969 431.066406 Z M 367.828125 481.863281 L 363.234375 499.972656 L 336.550781 499.972656 L 333.027344 428.933594 Z M 465.941406 604.089844 C 472.222656 594.207031 472.222656 582.710938 465.941406 569.605469 L 456.910156 556.269531 C 459.542969 554.25 461.925781 551.949219 464.914062 549.871094 L 473.007812 561.785156 C 482.554688 581.804688 480.199219 595.90625 465.941406 604.089844 Z M 517.402344 499.511719 L 464.015625 499.539062 C 462.226562 492.734375 459.359375 491.261719 453.410156 489.019531 C 453.058594 481.070312 450.453125 471.300781 441.953125 468.605469 C 449.71875 453.960938 465.074219 424.160156 483.628906 389.179688 C 487.234375 389.257812 490.152344 392.179688 492.382812 397.929688 L 498.386719 452.398438 C 485.25 447.273438 482.324219 442.585938 472.019531 444.425781 C 461.441406 448.53125 449.542969 464.777344 449.542969 464.777344 L 470.84375 456.742188 C 477.472656 454.613281 492.535156 462.019531 508.382812 470.722656 L 498.960938 400.382812 C 503.496094 402.398438 510.4375 404.769531 518.371094 407.441406 Z M 571.789062 639.621094 C 584.066406 641.742188 598.382812 639.332031 610.742188 635.882812 C 598.257812 645.25 584.535156 654.199219 571.789062 662.5 Z M 622.488281 626.585938 C 602.085938 628.589844 586.300781 629.804688 571.789062 627.035156 L 571.789062 442.285156 C 606.839844 454.898438 631.414062 531.648438 648.609375 597.105469 C 643.308594 607.117188 633.867188 617.015625 622.488281 626.585938 Z M 659.117188 579.742188 C 640.179688 520.609375 625.949219 477.613281 587.515625 436.429688 C 571.359375 420.210938 544.5 410.347656 498.960938 392.820312 C 496.113281 384.179688 491.902344 377.695312 483.601562 376.214844 L 483.386719 357.617188 L 513.066406 350.394531 C 519.03125 348.292969 528.5 343.738281 527.769531 332.421875 C 527.617188 330.0625 526.441406 326.542969 522.222656 320.882812 C 522.691406 317.703125 528.972656 318.800781 529.308594 313.03125 C 529.816406 309.390625 528.191406 306.632812 524.433594 304.753906 L 530.230469 299.675781 L 526.457031 287.773438 L 540.832031 280.226562 C 544.796875 277.652344 546.0625 274.351562 544.625 270.324219 L 526.601562 255.007812 C 551 245.164062 577.96875 217.871094 566.445312 210.289062 C 564.578125 209.058594 510.199219 209.746094 510.199219 209.746094 C 489.976562 169.050781 456.140625 155.226562 408.691406 168.277344 C 356.980469 190.085938 336.539062 226.296875 352.195312 275.410156 C 355.40625 288.414062 361.722656 302.121094 371.148438 316.527344 C 368.839844 340.375 363.511719 357.683594 356.332031 371.695312 L 322.242188 319.730469 C 317.050781 301.097656 315.316406 282.597656 317.03125 264.230469 L 303.496094 239.386719 L 241.246094 273.449219 L 228.632812 255.667969 L 290 219.15625 L 285.851562 204.628906 C 272.386719 192.6875 260.691406 191.148438 245.820312 194.113281 L 188 229.597656 C 173.355469 240.683594 176.125 254.371094 180.167969 264.941406 L 202.464844 296.722656 C 178.03125 324.71875 204.601562 347.015625 227.613281 339.183594 L 235.792969 335.46875 L 238.519531 340.605469 L 232.824219 346.300781 C 228.566406 356.78125 237.519531 370.117188 246.164062 367.132812 L 254.789062 363.027344 C 257.464844 367.296875 263.796875 377.871094 274.089844 394.3125 C 282.148438 403.792969 303.890625 397.664062 303.230469 381.207031 L 312.332031 393.691406 C 288.609375 402.285156 265.988281 407.757812 249.707031 420.648438 C 230.988281 433.503906 160.570312 578.949219 157.875 593.863281 C 112.03125 537.433594 87.101562 467.570312 87.101562 393.863281 C 87.101562 308.953125 120.167969 229.125 180.207031 169.085938 C 240.242188 109.046875 320.070312 75.980469 404.980469 75.980469 C 489.890625 75.980469 569.714844 109.046875 629.753906 169.085938 C 689.792969 229.125 722.855469 308.953125 722.855469 393.863281 C 722.855469 462.988281 700.941406 528.742188 660.394531 583.199219 Z M 659.117188 579.742188 " fill-opacity="1" fill-rule="evenodd"/></g></svg>